<svg width="18" height="18" viewBox="0 0 18 18" fill="none" xmlns="http://www.w3.org/2000/svg"><path d="M17.64 9.205c0-.639-.057-1.252-.164-1.841H9v3.485h4.844a4.15 4.15 0 01-1.808 2.708v2.267h2.92c1.702-1.571 2.684-3.879 2.684-6.62z" fill="#4285F4"/><path d="M9 18c2.43 0 4.467-.802 5.956-2.176l-2.92-2.267c-.802.54-1.825.867-3.036.867-2.34 0-4.328-1.579-5.04-3.706H.965v2.324C2.446 15.979 5.482 18 9 18z" fill="#34A853"/><path d="M3.96 10.71A5.393 5.393 0 013.674 9c0-.597.106-1.17.286-1.71V4.966H.965A8.889 8.889 0 000 9a8.9 8.9 0 00.965 4.034l2.332-1.817.663-.507z" fill="#FBBC05"/><path d="M9 3.584c1.325 0 2.504.458 3.444 1.341l2.578-2.577C13.459.892 11.43 0 9 0 5.482 0 2.446 2.02.965 4.966L3.96 7.29C4.672 5.163 6.66 3.584 9 3.584z" fill="#EA4335"/></svg>