<svg width="16" height="16" viewBox="0 0 16 16" fill="none" xmlns="http://www.w3.org/2000/svg"><g opacity=".3" fill="#fff"><rect x="12.923" width="3.077" height="3.077" rx="1"/><rect x="8.615" width="3.077" height="3.077" rx="1"/><rect x="4.308" width="3.077" height="3.077" rx="1"/><rect width="3.077" height="3.077" rx="1"/><rect x="12.923" y="4.308" width="3.077" height="3.077" rx="1"/><rect x="8.615" y="4.308" width="3.077" height="3.077" rx="1"/><rect x="4.308" y="4.308" width="3.077" height="3.077" rx="1"/><rect y="4.308" width="3.077" height="3.077" rx="1"/><rect x="12.923" y="8.615" width="3.077" height="3.077" rx="1"/><rect x="8.615" y="8.615" width="3.077" height="3.077" rx="1"/><rect x="4.308" y="8.615" width="3.077" height="3.077" rx="1"/><rect y="8.615" width="3.077" height="3.077" rx="1"/><rect x="12.923" y="12.923" width="3.077" height="3.077" rx="1"/><rect x="8.615" y="12.923" width="3.077" height="3.077" rx="1"/><rect x="4.308" y="12.923" width="3.077" height="3.077" rx="1"/><rect y="12.923" width="3.077" height="3.077" rx="1"/></g></svg>