<svg width="16" height="16" viewBox="0 0 16 16" fill="none" xmlns="http://www.w3.org/2000/svg"><path d="M14.967 14.967a.101.101 0 01-.112.026l-3.402-1.17a.56.56 0 00-.444.035 6.837 6.837 0 01-3.175.789h-.01c-3.705 0-6.764-3.01-6.823-6.713a6.771 6.771 0 011.998-4.936 6.773 6.773 0 014.935-1.997c3.707.059 6.718 3.124 6.713 6.833a6.838 6.838 0 01-.788 3.175.56.56 0 00-.035.444l1.17 3.402a.102.102 0 01-.027.112z" stroke="#fff" stroke-width="1.4" stroke-linecap="round" stroke-linejoin="round"/></svg>