<svg width="16" height="15" viewBox="0 0 16 15" fill="none" xmlns="http://www.w3.org/2000/svg"><path d="M7.24 1.496c.282-.661 1.238-.661 1.52 0l1.331 3.138c.119.279.386.47.694.494l3.457.271c.73.058 1.025.95.47 1.416l-2.634 2.21a.796.796 0 00-.265.8l.804 3.305c.17.697-.604 1.248-1.229.874l-2.96-1.77a.837.837 0 00-.857 0l-2.96 1.77c-.624.374-1.398-.177-1.228-.874l.804-3.306a.796.796 0 00-.264-.799l-2.634-2.21c-.556-.467-.26-1.358.469-1.416l3.457-.271a.821.821 0 00.694-.494L7.24 1.496z" stroke="#fff" stroke-width="1.4"/></svg>