<svg width="135" height="16" viewBox="0 0 135 16" fill="none" xmlns="http://www.w3.org/2000/svg"><path d="M4.707 7.94v-.08L.41.908h4.18l2.588 4.766h.068L9.854.908h3.974L9.346 7.9v.069L13.789 15H9.766L7.03 10.43h-.078L4.21 15H.4l4.307-7.06zm14.238 0v-.08L14.648.908h4.18l2.588 4.766h.068L24.092.908h3.974L23.584 7.9v.069L28.027 15h-4.023l-2.735-4.57h-.078L18.447 15H14.64l4.306-7.06zm14.239 0v-.08L28.887.908h4.18l2.587 4.766h.069L38.33.908h3.975L37.822 7.9v.069L42.266 15h-4.024l-2.734-4.57h-.078L32.685 15h-3.808l4.307-7.06z" fill="#E4285B"/><path d="M43.77 15V.908h6.591c1.387 0 2.478.313 3.272.938.788.631 1.181 1.49 1.181 2.578 0 .781-.263 1.461-.79 2.04A3.227 3.227 0 0152.05 7.48v.079c.963.045 1.77.384 2.422 1.015.664.645.996 1.433.996 2.364 0 1.236-.446 2.223-1.338 2.958-.892.736-2.09 1.104-3.594 1.104H43.77zm3.583-8.35h1.885c.651 0 1.162-.146 1.534-.44.364-.286.546-.683.546-1.19 0-.495-.166-.88-.498-1.153-.338-.28-.807-.42-1.406-.42h-2.06V6.65zm2.169 5.81c.742 0 1.311-.155 1.709-.468.397-.319.595-.775.595-1.367 0-.573-.202-1.016-.605-1.328-.404-.313-.977-.469-1.719-.469h-2.149v3.633h2.169zm15.83-.556h-4.61L59.844 15H56.19L60.928.908h4.385L70.049 15H66.24l-.888-3.096zm-3.917-2.578h3.213l-1.562-5.43h-.078l-1.573 5.43zM71.406 15V.908h6.592c1.387 0 2.477.313 3.271.938.788.631 1.182 1.49 1.182 2.578 0 .781-.263 1.461-.79 2.04a3.228 3.228 0 01-1.974 1.016v.079c.964.045 1.771.384 2.422 1.015a3.17 3.17 0 01.997 2.364c0 1.236-.447 2.223-1.338 2.958-.892.736-2.09 1.104-3.594 1.104h-6.768zm3.584-8.35h1.885c.651 0 1.162-.146 1.533-.44.365-.286.547-.683.547-1.19 0-.495-.166-.88-.498-1.153-.338-.28-.807-.42-1.406-.42h-2.06V6.65zm2.168 5.81c.742 0 1.312-.155 1.71-.468.396-.319.595-.775.595-1.367 0-.573-.202-1.016-.606-1.328-.403-.313-.976-.469-1.718-.469H74.99v3.633h2.168zM94.268 15h-9.659V.908h9.659v2.89h-6.075v2.804h5.713v2.636h-5.713v2.871h6.075V15zm4.98-4.082c.065.475.339.866.82 1.172.476.293 1.049.44 1.719.44.69 0 1.25-.14 1.68-.42.416-.274.625-.626.625-1.055 0-.39-.166-.697-.498-.918-.326-.215-.892-.407-1.699-.576l-1.846-.362c-2.624-.501-3.936-1.849-3.936-4.043 0-1.354.528-2.444 1.582-3.271 1.036-.814 2.377-1.22 4.024-1.22 1.745 0 3.121.393 4.131 1.18.989.782 1.494 1.84 1.513 3.175h-3.301c-.032-.508-.263-.909-.693-1.202-.417-.293-.954-.44-1.611-.44-.625 0-1.126.131-1.504.392-.384.26-.576.605-.576 1.035 0 .377.166.683.498.918.325.228.859.416 1.601.566l1.827.342c1.386.267 2.405.726 3.056 1.377.651.65.977 1.533.977 2.646 0 1.4-.537 2.517-1.612 3.35-1.074.827-2.519 1.24-4.336 1.24-1.803 0-3.222-.38-4.257-1.142-1.042-.762-1.573-1.823-1.592-3.184h3.408zm16.641 1.797h-6.963V9.717c1.178-2.279 2.969-5.215 5.371-8.809h4.98v9.014h1.758v2.793h-1.758V15h-3.388v-2.285zm-3.926-2.666h4.023V3.33h-.068c-1.751 2.61-3.07 4.818-3.955 6.621v.098zm14.355-.43c0 .827.215 1.468.645 1.924.436.462 1.051.693 1.846.693.794 0 1.406-.23 1.836-.693.429-.456.644-1.097.644-1.924V.91h3.584V10c0 1.582-.553 2.852-1.66 3.809-1.107.957-2.575 1.435-4.404 1.435-1.836 0-3.308-.478-4.414-1.435-1.107-.957-1.661-2.227-1.661-3.809V.908h3.584V9.62z" fill="#fff"/></svg>