<svg width="180" height="27" viewBox="0 0 180 27" fill="none" xmlns="http://www.w3.org/2000/svg"><path d="M15.102 7.573c-.119-1.119-.62-1.99-1.502-2.614-.873-.623-2.01-.935-3.41-.935-.983 0-1.827.15-2.531.448-.704.3-1.243.705-1.616 1.218a2.974 2.974 0 00-.572 1.755c0 .547.123 1.021.369 1.423a3.39 3.39 0 001.03 1.025c.433.273.912.504 1.438.692a15.38 15.38 0 001.59.474l2.443.615c.984.23 1.93.542 2.837.935a9.987 9.987 0 012.456 1.487 6.589 6.589 0 011.73 2.166c.424.845.636 1.836.636 2.973 0 1.537-.39 2.891-1.17 4.062-.78 1.162-1.909 2.071-3.385 2.73-1.467.648-3.244.973-5.33.973-2.028 0-3.788-.316-5.28-.948-1.485-.632-2.647-1.555-3.486-2.768C.517 22.07.068 20.593 0 18.85h4.644c.068.914.348 1.674.84 2.281.491.607 1.132 1.06 1.92 1.358.798.3 1.688.449 2.672.449 1.027 0 1.926-.154 2.697-.461.78-.317 1.392-.752 1.833-1.308.44-.563.665-1.221.674-1.973-.009-.683-.208-1.247-.598-1.692-.39-.452-.937-.828-1.641-1.127a15.69 15.69 0 00-2.443-.82l-2.964-.77c-2.146-.554-3.843-1.396-5.09-2.524C1.307 11.127.688 9.62.688 7.74c0-1.546.416-2.9 1.247-4.062.84-1.162 1.98-2.063 3.422-2.704C6.798.324 8.431 0 10.255 0c1.848 0 3.468.325 4.86.974 1.399.64 2.497 1.533 3.295 2.678.797 1.136 1.208 2.443 1.234 3.921h-4.542zm159.903 1.179a6.819 6.819 0 00-.872-1.86 5.686 5.686 0 00-1.315-1.425 5.27 5.27 0 00-1.745-.886 7.176 7.176 0 00-2.149-.308c-1.391 0-2.63.355-3.718 1.065-1.087.71-1.943 1.754-2.567 3.132-.615 1.368-.923 3.037-.923 5.004 0 1.985.308 3.666.923 5.044.616 1.377 1.471 2.425 2.567 3.144 1.096.71 2.369 1.065 3.819 1.065 1.315 0 2.453-.257 3.414-.77a5.388 5.388 0 002.238-2.182c.522-.95.784-2.062.784-3.336l1.062.166h-7.03v-3.721H180v3.157c0 2.25-.472 4.196-1.416 5.839a9.736 9.736 0 01-3.895 3.798c-1.652.881-3.548 1.322-5.69 1.322-2.385 0-4.48-.543-6.284-1.63-1.795-1.095-3.199-2.648-4.21-4.658-1.003-2.019-1.505-4.415-1.505-7.186 0-2.122.295-4.017.885-5.685.599-1.668 1.433-3.084 2.504-4.248a10.644 10.644 0 013.768-2.669C165.598.308 167.166 0 168.86 0c1.433 0 2.769.214 4.009.642a10.575 10.575 0 013.3 1.796 9.98 9.98 0 012.39 2.772 9.88 9.88 0 011.226 3.542h-4.78zM137.999 27H133l9.103-26h5.782L157 27h-4.999l-6.906-20.668h-.202L137.999 27zm.165-10.194h13.635v3.783h-13.635v-3.783zM115 7l-6.956 20h-5.088L96 7h4.909l4.489 14.857h.204L110.104 7H115zM84.595 27c-1.25 0-2.374-.218-3.375-.655-.992-.446-1.779-1.1-2.36-1.966-.573-.866-.86-1.933-.86-3.201 0-1.093.205-1.996.616-2.71a4.72 4.72 0 011.68-1.714 8.561 8.561 0 012.4-.97c.898-.227 1.826-.39 2.784-.492 1.155-.117 2.091-.222 2.81-.315.718-.1 1.24-.252 1.565-.453.334-.21.5-.534.5-.97v-.076c0-.95-.286-1.685-.86-2.206-.572-.52-1.398-.781-2.475-.781-1.138 0-2.04.244-2.707.73-.66.488-1.104 1.064-1.335 1.727l-4.337-.605c.343-1.176.907-2.159 1.694-2.949.787-.798 1.75-1.394 2.887-1.79C84.36 7.203 85.617 7 86.994 7c.95 0 1.895.11 2.835.328.941.218 1.8.58 2.58 1.083.778.496 1.402 1.172 1.872 2.03.48.856.719 1.928.719 3.213V26.61h-4.465v-2.66h-.154a5.582 5.582 0 01-1.193 1.512c-.505.463-1.142.837-1.912 1.122-.761.277-1.655.416-2.681.416zm1.206-3.352c.932 0 1.74-.18 2.425-.542.684-.37 1.21-.857 1.578-1.462a3.675 3.675 0 00.564-1.979v-2.28c-.145.117-.393.226-.744.327-.342.1-.727.19-1.155.265-.427.075-.85.142-1.27.201-.419.06-.782.11-1.09.152a8.23 8.23 0 00-1.86.453c-.548.21-.98.504-1.296.882-.317.37-.475.849-.475 1.437 0 .84.312 1.475.936 1.903.625.428 1.42.643 2.387.643zM121.595 27c-1.249 0-2.374-.218-3.375-.655-.992-.446-1.779-1.1-2.36-1.966-.573-.866-.86-1.933-.86-3.201 0-1.093.205-1.996.616-2.71a4.715 4.715 0 011.681-1.714 8.555 8.555 0 012.399-.97c.898-.227 1.826-.39 2.784-.492a111.69 111.69 0 002.81-.315c.718-.1 1.24-.252 1.565-.453.334-.21.5-.534.5-.97v-.076c0-.95-.286-1.685-.859-2.206-.573-.52-1.399-.781-2.476-.781-1.138 0-2.04.244-2.708.73-.658.488-1.103 1.064-1.334 1.727l-4.336-.605c.342-1.176.906-2.159 1.693-2.949.787-.798 1.749-1.394 2.887-1.79 1.137-.402 2.395-.604 3.772-.604.949 0 1.895.11 2.835.328a8.05 8.05 0 012.579 1.083c.779.496 1.403 1.172 1.874 2.03.479.856.718 1.928.718 3.213V26.61h-4.465v-2.66h-.154a5.582 5.582 0 01-1.193 1.512c-.505.463-1.142.837-1.912 1.122-.761.277-1.655.416-2.681.416zm1.206-3.352c.932 0 1.74-.18 2.425-.542.684-.37 1.21-.857 1.578-1.462a3.677 3.677 0 00.564-1.979v-2.28c-.145.117-.393.226-.744.327-.342.1-.727.19-1.155.265a37.87 37.87 0 01-1.27.201c-.419.06-.782.11-1.09.152a8.243 8.243 0 00-1.861.453c-.547.21-.979.504-1.296.882-.316.37-.474.849-.474 1.437 0 .84.312 1.475.936 1.903.625.428 1.42.643 2.387.643zm-58.269-8.074V27H60V1h4.431v9.813h.226c.45-1.1 1.147-1.967 2.09-2.602.952-.643 2.162-.965 3.63-.965 1.336 0 2.5.284 3.493.85.993.568 1.761 1.397 2.304 2.489.55 1.092.826 2.425.826 3.999V27h-4.532V15.295c0-1.312-.334-2.332-1.001-3.06-.66-.736-1.586-1.104-2.78-1.104-.8 0-1.518.178-2.152.533a3.707 3.707 0 00-1.478 1.51c-.35.661-.525 1.46-.525 2.4zM50.504 27c-1.98 0-3.68-.424-5.1-1.274-1.413-.849-2.502-2.021-3.268-3.518C41.38 20.703 41 18.971 41 17.013c0-1.968.387-3.704 1.162-5.209.775-1.513 1.868-2.69 3.28-3.53C46.862 7.424 48.54 7 50.478 7c1.61 0 3.034.29 4.274.87 1.248.572 2.242 1.383 2.983 2.434.74 1.042 1.162 2.261 1.265 3.657h-4.468a4.144 4.144 0 00-1.291-2.333c-.671-.63-1.571-.946-2.699-.946-.955 0-1.794.252-2.518.757-.723.496-1.287 1.21-1.691 2.144-.396.933-.594 2.05-.594 3.354 0 1.32.198 2.455.594 3.405.396.941.951 1.669 1.666 2.181.723.505 1.57.757 2.543.757.689 0 1.304-.126 1.847-.378a3.694 3.694 0 001.381-1.123c.37-.487.624-1.08.762-1.778H59c-.112 1.37-.525 2.585-1.24 3.645-.714 1.05-1.687 1.874-2.918 2.471-1.23.589-2.677.883-4.338.883zM30.5 27c-1.936 0-3.614-.416-5.034-1.248-1.42-.833-2.521-1.997-3.304-3.493C21.387 20.762 21 19.014 21 17.013c0-2.001.387-3.754 1.162-5.259.783-1.505 1.884-2.673 3.304-3.506C26.886 7.416 28.564 7 30.5 7s3.614.416 5.034 1.248c1.42.833 2.517 2.001 3.291 3.506C39.608 13.26 40 15.012 40 17.013c0 2-.392 3.75-1.175 5.245-.774 1.497-1.871 2.661-3.291 3.494C34.114 26.584 32.436 27 30.5 27zm.026-3.657c1.05 0 1.927-.282 2.633-.845.706-.572 1.23-1.337 1.575-2.295.352-.958.529-2.026.529-3.203 0-1.185-.176-2.257-.53-3.216-.343-.966-.868-1.736-1.574-2.307-.706-.572-1.583-.858-2.633-.858-1.076 0-1.97.286-2.685.858-.706.571-1.235 1.34-1.588 2.307-.344.959-.516 2.03-.516 3.216 0 1.177.172 2.245.516 3.203.353.958.882 1.723 1.588 2.295.714.563 1.61.845 2.685.845z" fill="#1476C4"/></svg>